<svg width="83" height="83" viewBox="0 0 83 83" fill="none" xmlns="http://www.w3.org/2000/svg">
<path d="M17.4653 59.7572C4.89796 47.2507 21.7311 20.3848 32.6252 18.1463C43.549 15.8834 68.148 40.4716 64.6653 50.0316C61.1794 59.6423 30.0592 72.2902 17.4653 59.7572Z" fill="url(#paint0_linear_1_507)"/>
<path d="M17.4653 59.7572C4.89796 47.2507 21.7311 20.3848 32.6252 18.1463C43.549 15.8834 68.148 40.4716 64.6653 50.0316C61.1794 59.6423 30.0592 72.2902 17.4653 59.7572Z" fill="white" fill-opacity="0.5"/>
<path d="M29.2055 58.4028C27.7075 58.2997 26.3334 57.8954 25.0834 57.1897C23.8648 56.4566 22.831 55.3968 21.9819 54.0104C21.1642 52.5966 20.5607 50.8582 20.1714 48.795C19.784 46.7025 19.6873 44.2463 19.8812 41.4265C20.0751 38.6066 20.5061 36.2015 21.1742 34.2111C21.8443 32.1913 22.6801 30.5518 23.6816 29.2926C24.7124 28.0355 25.8806 27.1419 27.186 26.6119C28.5209 26.0839 29.9373 25.8714 31.4354 25.9744C32.9334 26.0775 34.2928 26.4808 35.5134 27.1845C36.7341 27.8882 37.7542 28.9323 38.5739 30.3167C39.3956 31.6717 39.9865 33.3798 40.3465 35.4409C40.7358 37.504 40.8335 39.9455 40.6396 42.7654C40.4457 45.5852 40.0137 48.005 39.3436 50.0248C38.7049 52.0173 37.8838 53.6578 36.8803 54.9463C35.8768 56.2349 34.7213 57.1589 33.4138 57.7182C32.1063 58.2776 30.7036 58.5058 29.2055 58.4028ZM29.4008 54.919C30.3995 54.9876 31.2959 54.8279 32.0899 54.4399C32.8839 54.0518 33.5796 53.3766 34.177 52.4142C34.7744 51.4519 35.2608 50.172 35.6362 48.5747C36.0431 46.9499 36.3273 44.9626 36.4889 42.6128C36.6505 40.2629 36.6546 38.2711 36.5014 36.6374C36.3501 34.9743 36.0444 33.6252 35.5844 32.5901C35.1244 31.5551 34.5276 30.791 33.7942 30.2979C33.0608 29.8048 32.1947 29.5239 31.196 29.4552C30.1973 29.3865 29.2863 29.5452 28.4629 29.9313C27.6689 30.3194 26.9585 30.9936 26.3318 31.9539C25.7344 32.9162 25.2322 34.2098 24.8254 35.8345C24.4499 37.4319 24.1814 39.4055 24.0198 41.7554C23.8583 44.1052 23.8531 46.1117 24.0043 47.7748C24.187 49.4105 24.5083 50.7459 24.9684 51.781C25.4284 52.8161 26.0252 53.5801 26.7586 54.0733C27.5214 54.5684 28.4021 54.8503 29.4008 54.919Z" fill="#21201F"/>
<path d="M50.4001 41.9314L51.3757 27.744L58.8218 28.256C62.1117 28.4823 64.6177 29.3776 66.3399 30.9422C68.0914 32.5087 68.8672 34.746 68.6673 37.6539C68.5642 39.152 68.211 40.4262 67.6076 41.4767C67.0335 42.5292 66.2375 43.3746 65.2197 44.0129C64.2333 44.6239 63.0671 45.0601 61.721 45.3217C60.377 45.5539 58.8972 45.6145 57.2817 45.5034L54.3297 45.3004L54.0721 49.0455L63.2807 49.6787L63.0686 52.763L53.8601 52.1297L53.345 59.62L49.2033 59.3352L49.7184 51.845L46.1055 51.5965L46.3175 48.5123L49.9305 48.7607L50.188 45.0156L46.5751 44.7672L46.7871 41.683L50.4001 41.9314ZM55.2719 31.5977L54.5417 42.2162L57.4938 42.4192C59.638 42.5666 61.2986 42.2381 62.4754 41.4337C63.6835 40.6019 64.3523 39.246 64.4815 37.3661C64.6007 35.6331 64.1892 34.321 63.2471 33.4299C62.3363 32.5114 60.7794 31.9764 58.5764 31.8249L55.2719 31.5977Z" fill="#21201F"/>
<defs>
<linearGradient id="paint0_linear_1_507" x1="17.4784" y1="59.7705" x2="50.7317" y2="26.3556" gradientUnits="userSpaceOnUse">
<stop stop-color="#FF5C4D"/>
<stop offset="0.25" stop-color="#EB469F"/>
<stop offset="0.72" stop-color="#8341EF"/>
<stop offset="1" stop-color="#3F68F9"/>
</linearGradient>
</defs>
</svg>
