<svg width="83" height="83" viewBox="0 0 83 83" fill="none" xmlns="http://www.w3.org/2000/svg">
<path d="M11.6618 51.3181C6.25456 33.2943 35.4158 11.6096 46.9945 25.0444C54.6514 33.9269 54.0844 55.2168 42.9835 63.4715C31.8826 71.7263 15.2362 63.2365 11.6618 51.3181Z" fill="url(#paint0_linear_1_526)"/>
<path d="M11.6618 51.3181C6.25456 33.2943 35.4158 11.6096 46.9945 25.0444C54.6514 33.9269 54.0844 55.2168 42.9835 63.4715C31.8826 71.7263 15.2362 63.2365 11.6618 51.3181Z" fill="white" fill-opacity="0.5"/>
<path d="M32.5701 39.8997C32.2814 36.5997 34.7226 33.6904 38.0226 33.4017L61.5474 31.3435C64.8475 31.0548 67.7567 33.496 68.0454 36.796L68.7118 44.4126C69.0005 47.7126 66.5594 50.6219 63.2593 50.9106L39.7345 52.9688C36.4345 53.2575 33.5252 50.8163 33.2365 47.5163L32.5701 39.8997Z" stroke="#21201F" stroke-width="2.71475"/>
<defs>
<linearGradient id="paint0_linear_1_526" x1="50.9383" y1="31.5671" x2="11.9438" y2="52.622" gradientUnits="userSpaceOnUse">
<stop stop-color="#FF5C4D"/>
<stop offset="0.25" stop-color="#EB469F"/>
<stop offset="0.72" stop-color="#8341EF"/>
<stop offset="1" stop-color="#3F68F9"/>
</linearGradient>
</defs>
</svg>
