<svg width="83" height="83" viewBox="0 0 83 83" fill="none" xmlns="http://www.w3.org/2000/svg">
<path d="M12.6919 50.6134C7.03863 33.3343 37.5269 12.5457 49.6324 25.4253C57.6378 33.9407 57.0449 54.3509 45.4389 62.2645C33.8329 70.1782 16.429 62.0392 12.6919 50.6134Z" fill="url(#paint0_linear_1_520)"/>
<path d="M12.6919 50.6134C7.03863 33.3343 37.5269 12.5457 49.6324 25.4253C57.6378 33.9407 57.0449 54.3509 45.4389 62.2645C33.8329 70.1782 16.429 62.0392 12.6919 50.6134Z" fill="white" fill-opacity="0.5"/>
<path d="M46.3291 68.2981C33.5912 69.281 24 61.0641 23.017 48.3262C22.034 35.5884 30.251 25.9972 42.9888 25.0142C48.0592 24.6229 52.7423 25.661 56.5933 28.0075C62.2735 31.4879 65.7235 37.5041 66.3009 44.986C67.2839 57.7238 59.0669 67.3151 46.3291 68.2981ZM41.6863 28.287C31.5029 29.726 25.2927 37.514 26.1087 48.0877C26.9652 59.1869 34.9913 66.0629 46.0905 65.2064C57.1897 64.3498 64.0657 56.3238 63.2092 45.2246C62.7105 38.7629 59.7911 33.5766 54.9625 30.6525C52.0581 28.8862 48.569 28.0047 44.778 28.0484L46.4601 49.8449L32.331 50.9353L32.0757 47.6272L43.1131 46.7754L41.6863 28.287ZM67.1065 32.8566L65.3245 30.3194L69.4264 27.4525L71.2083 29.9897L67.1065 32.8566ZM60.4479 25.564L57.8599 23.8666L62.8738 16.2953L65.4618 17.9927L60.4479 25.564ZM50.1512 21.1025L47.0523 20.8441C47.1021 20.2804 46.9069 19.7667 46.4359 19.3055C44.7493 17.6006 40.0499 17.9633 38.6448 19.9067C38.2811 20.4324 38.167 20.9699 38.3003 21.4883L35.2777 22.2192C34.9183 20.7852 35.239 19.2987 36.14 18.0784C37.3763 16.3658 39.6521 15.226 42.1873 15.0304C44.7534 14.8323 47.1461 15.6118 48.6305 17.1145C49.7414 18.2106 50.2864 19.6303 50.1512 21.1025Z" fill="#21201F"/>
<defs>
<linearGradient id="paint0_linear_1_520" x1="53.7557" y1="31.6785" x2="14.6578" y2="54.7012" gradientUnits="userSpaceOnUse">
<stop stop-color="#FF5C4D"/>
<stop offset="0.25" stop-color="#EB469F"/>
<stop offset="0.72" stop-color="#8341EF"/>
<stop offset="1" stop-color="#3F68F9"/>
</linearGradient>
</defs>
</svg>
