<svg width="27" height="24" viewBox="0 0 27 24" fill="none" xmlns="http://www.w3.org/2000/svg">
<path d="M24.75 10.5C25.5784 10.5 26.25 11.1716 26.25 12C26.25 12.8284 25.5784 13.5 24.75 13.5L24.75 10.5ZM1.18934 13.0607C0.603552 12.4749 0.603552 11.5251 1.18934 10.9393L10.7353 1.3934C11.3211 0.80761 12.2708 0.80761 12.8566 1.3934C13.4424 1.97918 13.4424 2.92893 12.8566 3.51472L4.37132 12L12.8566 20.4853C13.4424 21.0711 13.4424 22.0208 12.8566 22.6066C12.2708 23.1924 11.3211 23.1924 10.7353 22.6066L1.18934 13.0607ZM24.75 13.5L2.25 13.5L2.25 10.5L24.75 10.5L24.75 13.5Z" fill="#21201F"/>
</svg>
